<svg width="83" height="89" viewBox="0 0 83 89" fill="none" xmlns="http://www.w3.org/2000/svg">
<rect width="83" height="89" rx="16" fill="#DCE6FF"/>
<g clip-path="url(#clip0_164_2918)">
<rect width="83" height="23" transform="translate(0 66)" fill="#EFF4FF"/>
<path d="M33.016 76.636C33.232 76.26 33.552 75.948 33.976 75.7C34.408 75.444 34.908 75.316 35.476 75.316C36.06 75.316 36.588 75.456 37.06 75.736C37.54 76.016 37.916 76.412 38.188 76.924C38.46 77.428 38.596 78.016 38.596 78.688C38.596 79.352 38.46 79.944 38.188 80.464C37.916 80.984 37.54 81.388 37.06 81.676C36.588 81.964 36.06 82.108 35.476 82.108C34.916 82.108 34.42 81.984 33.988 81.736C33.564 81.48 33.24 81.164 33.016 80.788V85.12H31.924V75.424H33.016V76.636ZM37.48 78.688C37.48 78.192 37.38 77.76 37.18 77.392C36.98 77.024 36.708 76.744 36.364 76.552C36.028 76.36 35.656 76.264 35.248 76.264C34.848 76.264 34.476 76.364 34.132 76.564C33.796 76.756 33.524 77.04 33.316 77.416C33.116 77.784 33.016 78.212 33.016 78.7C33.016 79.196 33.116 79.632 33.316 80.008C33.524 80.376 33.796 80.66 34.132 80.86C34.476 81.052 34.848 81.148 35.248 81.148C35.656 81.148 36.028 81.052 36.364 80.86C36.708 80.66 36.98 80.376 37.18 80.008C37.38 79.632 37.48 79.192 37.48 78.688ZM39.6254 78.688C39.6254 78.016 39.7614 77.428 40.0334 76.924C40.3054 76.412 40.6774 76.016 41.1494 75.736C41.6294 75.456 42.1654 75.316 42.7574 75.316C43.2694 75.316 43.7454 75.436 44.1854 75.676C44.6254 75.908 44.9614 76.216 45.1934 76.6V73.12H46.2974V82H45.1934V80.764C44.9774 81.156 44.6574 81.48 44.2334 81.736C43.8094 81.984 43.3134 82.108 42.7454 82.108C42.1614 82.108 41.6294 81.964 41.1494 81.676C40.6774 81.388 40.3054 80.984 40.0334 80.464C39.7614 79.944 39.6254 79.352 39.6254 78.688ZM45.1934 78.7C45.1934 78.204 45.0934 77.772 44.8934 77.404C44.6934 77.036 44.4214 76.756 44.0774 76.564C43.7414 76.364 43.3694 76.264 42.9614 76.264C42.5534 76.264 42.1814 76.36 41.8454 76.552C41.5094 76.744 41.2414 77.024 41.0414 77.392C40.8414 77.76 40.7414 78.192 40.7414 78.688C40.7414 79.192 40.8414 79.632 41.0414 80.008C41.2414 80.376 41.5094 80.66 41.8454 80.86C42.1814 81.052 42.5534 81.148 42.9614 81.148C43.3694 81.148 43.7414 81.052 44.0774 80.86C44.4214 80.66 44.6934 80.376 44.8934 80.008C45.0934 79.632 45.1934 79.196 45.1934 78.7ZM50.8188 76.324H49.4388V82H48.3468V76.324H47.4948V75.424H48.3468V74.956C48.3468 74.22 48.5348 73.684 48.9108 73.348C49.2948 73.004 49.9068 72.832 50.7467 72.832V73.744C50.2668 73.744 49.9268 73.84 49.7268 74.032C49.5348 74.216 49.4388 74.524 49.4388 74.956V75.424H50.8188V76.324Z" fill="#838A99"/>
</g>
<g opacity="0.14">
<rect x="20" y="17" width="43" height="8" rx="4" fill="#215DF6"/>
<rect x="20" y="31" width="43" height="8" rx="4" fill="#215DF6"/>
<rect x="20" y="45" width="43" height="8" rx="4" fill="#215DF6"/>
</g>
<defs>
<clipPath id="clip0_164_2918">
<rect width="83" height="23" fill="white" transform="translate(0 66)"/>
</clipPath>
</defs>
</svg>
